# xmcd
#
# Track frame offsets:
#   150
#   18431
#   31084
#   44788
#   61037
#   72224
#   88583
#   98848
#   114996
#   129975
#   140297
#   152614
#
# Disc length: 2170 seconds
#
# Revision: 0
# Processed by: cddbd v1.5.2PL0 Copyright (c) Steve Scherf et al.
# Submitted via: uFREEDB ActiveX Control 1.5
#
DISCID=9208780c
DTITLE=Cachoeiro E Clael - Puro Caipira
DYEAR=2008
DGENRE=Sertanejo
TTITLE0=Franguinho Na Panela
TTITLE1=Roda Moreninha
TTITLE2=Pé No Barro
TTITLE3=Presente De Natal
TTITLE4=Retranca
TTITLE5=A Paquera
TTITLE6=O Negócio Dela
TTITLE7=A Maluquinha
TTITLE8=Caneta De Jornalista
TTITLE9=Tempo De Carreiro
TTITLE10=Desafio: CorinthiansXPalmeiras
TTITLE11=Puro Caipira
EXTD=
EXTT0=
EXTT1=
EXTT2=
EXTT3=
EXTT4=
EXTT5=
EXTT6=
EXTT7=
EXTT8=
EXTT9=
EXTT10=
EXTT11=
PLAYORDER=
